<svg width="32" height="32" viewBox="0 0 32 32" fill="none" xmlns="http://www.w3.org/2000/svg">
<path d="M29.96 25.0935L28.6267 19.9468L24.4267 4.49345C24.3359 4.15257 24.1138 3.86155 23.8089 3.68412C23.504 3.50669 23.1412 3.45731 22.8 3.54679L17.64 4.88012C17.5169 4.74365 17.3668 4.63411 17.1993 4.55839C17.0318 4.48267 16.8505 4.44241 16.6667 4.44012H3.33333C2.97971 4.44012 2.64057 4.5806 2.39052 4.83065C2.14048 5.08069 2 5.41983 2 5.77345V27.1068C2 27.4604 2.14048 27.7996 2.39052 28.0496C2.64057 28.2996 2.97971 28.4401 3.33333 28.4401H16.6667C17.0203 28.4401 17.3594 28.2996 17.6095 28.0496C17.8595 27.7996 18 27.4604 18 27.1068V16.4401L20.9333 27.4001C21.0115 27.691 21.1858 27.9469 21.4279 28.126C21.67 28.3052 21.9657 28.3971 22.2667 28.3868C22.3819 28.3999 22.4981 28.3999 22.6133 28.3868L29.0533 26.6668C29.2236 26.6213 29.3831 26.5424 29.5227 26.4349C29.6623 26.3273 29.7792 26.1931 29.8667 26.0401C30.0073 25.7451 30.0403 25.4102 29.96 25.0935ZM8.62667 25.8268H4.62667V23.1601H8.62667V25.8268ZM8.62667 20.4935H4.62667V12.4935H8.62667V20.4935ZM8.62667 9.82679H4.62667V7.16012H8.62667V9.82679ZM15.2933 25.8268H11.2933V23.1601H15.2933V25.8268ZM15.2933 20.4935H11.2933V12.4935H15.2933V20.4935ZM15.2933 9.82679H11.2933V7.16012H15.2933V9.82679ZM18.2933 7.50679L22.16 6.46679L22.8533 9.04012L18.9867 10.0801L18.2933 7.50679ZM21.7467 20.3868L19.68 12.6535L23.5467 11.6135L25.6133 19.3468L21.7467 20.3868ZM23.08 25.5335L22.3867 22.9601L26.2533 21.9201L26.9467 24.4935L23.08 25.5335Z" fill="url(#paint0_linear_202_2)"/>
<defs>
<linearGradient id="paint0_linear_202_2" x1="16.0015" y1="3.50317" x2="16.0015" y2="28.4401" gradientUnits="userSpaceOnUse">
<stop stop-color="#400557"/>
<stop offset="1" stop-color="#A164B9"/>
</linearGradient>
</defs>
</svg>
