<svg width="33" height="32" viewBox="0 0 33 32" fill="none" xmlns="http://www.w3.org/2000/svg">
<path d="M23.3226 0C20.5386 0 17.8666 1.41253 16.1226 3.64469C14.3785 1.41253 11.7066 0 8.92257 0C3.99456 0 0.122559 4.22016 0.122559 9.59128C0.122559 16.1831 5.56256 21.5542 13.8025 29.7155L16.1226 32L18.4426 29.6981C26.6826 21.5542 32.1226 16.1831 32.1226 9.59128C32.1226 4.22016 28.2506 0 23.3226 0ZM16.2825 27.1172L16.1226 27.2916L15.9626 27.1172C8.34657 19.6011 3.32256 14.6311 3.32256 9.59128C3.32256 6.10354 5.72256 3.48774 8.92257 3.48774C11.3866 3.48774 13.7866 5.21417 14.6346 7.60327H17.6266C18.4586 5.21417 20.8586 3.48774 23.3226 3.48774C26.5226 3.48774 28.9226 6.10354 28.9226 9.59128C28.9226 14.6311 23.8986 19.6011 16.2825 27.1172Z" fill="url(#paint0_linear_8_4)"/>
<defs>
<linearGradient id="paint0_linear_8_4" x1="13.493" y1="-3.84001" x2="59.7463" y2="2.28447" gradientUnits="userSpaceOnUse">
<stop stop-color="#400557"/>
<stop offset="1" stop-color="#A164B9"/>
</linearGradient>
</defs>
</svg>
