<svg width="25" height="25" viewBox="0 0 25 25" fill="none" xmlns="http://www.w3.org/2000/svg">
<path fill-rule="evenodd" clip-rule="evenodd" d="M13.8625 14.6875C14.05 14.925 14.275 15.1937 14.275 15.1937C15.6562 15.15 16.1875 14.2437 16.1875 14.2437C16.1875 12.2312 15.2875 10.6 15.2875 10.6C14.3875 9.925 13.5312 9.94375 13.5312 9.94375L13.4438 10.0437C14.5063 10.3687 15 10.8375 15 10.8375C14.35 10.4813 13.7125 10.3063 13.1187 10.2375C12.6687 10.1875 12.2375 10.2 11.8562 10.25C11.8235 10.25 11.7955 10.2548 11.764 10.2601L11.75 10.2625C11.5313 10.2812 11 10.3625 10.3312 10.6563C10.1 10.7625 9.9625 10.8375 9.9625 10.8375C9.9625 10.8375 10.4812 10.3437 11.6062 10.0188L11.5438 9.94375C11.5438 9.94375 10.6875 9.925 9.7875 10.6C9.7875 10.6 8.8875 12.2312 8.8875 14.2437C8.8875 14.2437 9.4125 15.15 10.7937 15.1937C10.7937 15.1937 11.025 14.9125 11.2125 14.675C10.4188 14.4375 10.1187 13.9375 10.1187 13.9375C10.1187 13.9375 10.1812 13.9812 10.2937 14.0437C10.3 14.05 10.3062 14.0563 10.3188 14.0625C10.3281 14.0688 10.3375 14.0734 10.3469 14.0781C10.3563 14.0828 10.3656 14.0875 10.375 14.0937C10.5312 14.1813 10.6875 14.25 10.8313 14.3062C11.0875 14.4062 11.3937 14.5062 11.75 14.575C12.2187 14.6625 12.7687 14.6938 13.3687 14.5812C13.6625 14.5313 13.9625 14.4437 14.275 14.3125C14.4938 14.2312 14.7375 14.1125 14.9937 13.9437C14.9937 13.9437 14.6812 14.4562 13.8625 14.6875ZM10.7313 12.9688C10.7313 12.5875 11.0125 12.275 11.3688 12.275C11.725 12.275 12.0125 12.5875 12.0063 12.9688C12.0063 13.35 11.725 13.6625 11.3688 13.6625C11.0188 13.6625 10.7313 13.35 10.7313 12.9688ZM13.0125 12.9688C13.0125 12.5875 13.2938 12.275 13.65 12.275C14.0063 12.275 14.2875 12.5875 14.2875 12.9688C14.2875 13.35 14.0063 13.6625 13.65 13.6625C13.3 13.6625 13.0125 13.35 13.0125 12.9688Z" fill="url(#paint0_linear_1702_2)"/>
<path fill-rule="evenodd" clip-rule="evenodd" d="M12.5 0C19.4036 0 25 5.59644 25 12.5C25 19.4036 19.4036 25 12.5 25C5.59644 25 0 19.4036 0 12.5C0 5.59644 5.59644 0 12.5 0ZM7.03125 8.31875C7.03125 7.60625 7.60625 7.03125 8.3125 7.03125H16.6875C17.3937 7.03125 17.9688 7.60625 17.9688 8.31875V19.5312L16.625 18.3437L15.8687 17.6437L15.0688 16.9L15.4 18.0562H8.3125C7.60625 18.0562 7.03125 17.4812 7.03125 16.7688V8.31875Z" fill="url(#paint1_linear_1702_2)"/>
<defs>
<linearGradient id="paint0_linear_1702_2" x1="12.5" y1="0" x2="12.5" y2="25" gradientUnits="userSpaceOnUse">
<stop stop-color="#400557"/>
<stop offset="1" stop-color="#A164B9"/>
</linearGradient>
<linearGradient id="paint1_linear_1702_2" x1="12.5" y1="0" x2="12.5" y2="25" gradientUnits="userSpaceOnUse">
<stop stop-color="#400557"/>
<stop offset="1" stop-color="#A164B9"/>
</linearGradient>
</defs>
</svg>
