<svg width="109" height="38" viewBox="0 0 109 38" fill="none" xmlns="http://www.w3.org/2000/svg">
<g clip-path="url(#clip0_30_69)">
<path fill-rule="evenodd" clip-rule="evenodd" d="M56 7.47461C55.6882 7.47461 55.3828 7.57193 55.1201 7.75507C54.8607 7.93588 54.6534 8.19288 54.5221 8.4964L52.0273 13.9908C52.0224 14.0016 52.0177 14.0125 52.0133 14.0236L52.0082 14.0304L52.0006 14.0336C51.9911 14.0348 51.9815 14.0361 51.972 14.0377L46.4789 14.9255C46.1753 14.9577 45.8858 15.0819 45.6433 15.2846C45.3924 15.4943 45.2026 15.7788 45.0969 16.1037C44.9912 16.4287 44.9741 16.7801 45.0478 17.1154C45.1212 17.4494 45.2814 17.7531 45.5092 17.9901L49.5301 22.2224L49.5393 22.2319C49.545 22.2378 49.5494 22.2451 49.5518 22.2532C49.5543 22.2613 49.5549 22.27 49.5535 22.2785L48.5945 28.4013C48.5418 28.7329 48.5752 29.0754 48.6912 29.387C48.8073 29.6994 49.0015 29.9697 49.2515 30.1675C49.5016 30.3652 49.7975 30.4825 50.1057 30.5058C50.4132 30.5291 50.7205 30.4579 50.9928 30.3006L50.9945 30.2995L55.9437 27.4461C55.9614 27.4377 55.9806 27.4333 56 27.4333C56.0194 27.4333 56.0386 27.4377 56.0563 27.4461L61.0055 30.2995C61.2779 30.4574 61.5866 30.5293 61.8943 30.5058C62.2024 30.4825 62.4983 30.3652 62.7485 30.1675C62.9985 29.9697 63.1927 29.6994 63.3089 29.387C63.4248 29.0754 63.4583 28.7346 63.4058 28.4032L63.4055 28.4013L62.4474 22.2841L62.4465 22.2785C62.445 22.27 62.4457 22.2613 62.4482 22.2532C62.4505 22.2451 62.4549 22.2378 62.4606 22.2319L62.4699 22.2224L66.4908 17.9901C66.7185 17.7531 66.8788 17.4494 66.9522 17.1154C67.0257 16.7801 67.0088 16.4287 66.903 16.1037C66.7974 15.7788 66.6076 15.4943 66.3566 15.2846C66.1142 15.0819 65.8247 14.9577 65.5211 14.9255L60.028 14.0377C60.0185 14.0361 60.0089 14.0348 59.9993 14.0336L59.9918 14.0304L59.9867 14.0236C59.9822 14.0125 59.9775 14.0016 59.9726 13.9908L57.4779 8.49638C57.3465 8.19287 57.1393 7.93587 56.8799 7.75507C56.6171 7.57193 56.3118 7.47461 56 7.47461Z" fill="#5E0B7E"/>
</g>
<g clip-path="url(#clip1_30_69)">
<path fill-rule="evenodd" clip-rule="evenodd" d="M37 7.47461C36.6599 7.47461 36.3268 7.57193 36.0401 7.75507C35.7572 7.93588 35.5311 8.19288 35.3878 8.4964L32.6662 13.9908C32.6609 14.0016 32.6558 14.0125 32.6509 14.0236L32.6453 14.0304L32.6371 14.0336C32.6267 14.0348 32.6162 14.0361 32.6058 14.0377L26.6134 14.9255C26.2822 14.9577 25.9664 15.0819 25.7018 15.2846C25.4281 15.4943 25.2211 15.7788 25.1058 16.1037C24.9905 16.4287 24.9718 16.7801 25.0522 17.1154C25.1322 17.4494 25.307 17.7531 25.5555 17.9901L29.942 22.2224L29.952 22.2319C29.9583 22.2378 29.963 22.2451 29.9657 22.2532C29.9684 22.2613 29.969 22.27 29.9675 22.2785L28.9213 28.4013C28.8639 28.7329 28.9002 29.0754 29.0268 29.387C29.1535 29.6994 29.3653 29.9697 29.6381 30.1675C29.9109 30.3652 30.2337 30.4825 30.5699 30.5058C30.9053 30.5291 31.2406 30.4579 31.5377 30.3006L31.5395 30.2995L36.9386 27.4461C36.958 27.4377 36.9789 27.4333 37.0001 27.4333C37.0212 27.4333 37.0421 27.4377 37.0615 27.4461L42.4605 30.2995C42.7578 30.4574 43.0945 30.5293 43.4301 30.5058C43.7663 30.4825 44.0891 30.3652 44.362 30.1675C44.6348 29.9697 44.8467 29.6994 44.9733 29.387C45.0999 29.0754 45.1364 28.7346 45.0791 28.4032L45.0788 28.4013L44.0336 22.2841L44.0325 22.2785C44.031 22.27 44.0317 22.2613 44.0344 22.2532C44.037 22.2451 44.0418 22.2378 44.048 22.2319L44.0581 22.2224L48.4446 17.9901C48.693 17.7531 48.8679 17.4494 48.9479 17.1154C49.0281 16.7801 49.0096 16.4287 48.8943 16.1037C48.7791 15.7788 48.572 15.4943 48.2982 15.2846C48.0337 15.0819 47.7179 14.9577 47.3867 14.9255L41.3942 14.0377C41.3838 14.0361 41.3734 14.0348 41.363 14.0336L41.3547 14.0304L41.3492 14.0236C41.3443 14.0125 41.3392 14.0016 41.3338 13.9908L38.6123 8.49638C38.469 8.19287 38.2429 7.93587 37.9599 7.75507C37.6733 7.57193 37.3402 7.47461 37 7.47461Z" fill="#4F066B"/>
</g>
<g clip-path="url(#clip2_30_69)">
<path fill-rule="evenodd" clip-rule="evenodd" d="M17 7.47461C16.6599 7.47461 16.3268 7.57193 16.0401 7.75507C15.7572 7.93588 15.5311 8.19288 15.3878 8.4964L12.6662 13.9908C12.6609 14.0016 12.6558 14.0125 12.6509 14.0236L12.6453 14.0304L12.6371 14.0336C12.6267 14.0348 12.6162 14.0361 12.6058 14.0377L6.61342 14.9255C6.28222 14.9577 5.96638 15.0819 5.70184 15.2846C5.42811 15.4943 5.22106 15.7788 5.10576 16.1037C4.99045 16.4287 4.97185 16.7801 5.05219 17.1154C5.13223 17.4494 5.30703 17.7531 5.55555 17.9901L9.94202 22.2224L9.95202 22.2319C9.95827 22.2378 9.96299 22.2451 9.9657 22.2532C9.9684 22.2613 9.96904 22.27 9.96753 22.2785L8.9213 28.4013C8.86387 28.7329 8.90023 29.0754 9.02676 29.387C9.15347 29.6994 9.36528 29.9697 9.63808 30.1675C9.91089 30.3652 10.2337 30.4825 10.5699 30.5058C10.9053 30.5291 11.2406 30.4579 11.5377 30.3006L11.5395 30.2995L16.9386 27.4461C16.958 27.4377 16.9789 27.4333 17.0001 27.4333C17.0212 27.4333 17.0421 27.4377 17.0615 27.4461L22.4605 30.2995C22.7578 30.4574 23.0945 30.5293 23.4301 30.5058C23.7663 30.4825 24.0891 30.3652 24.362 30.1675C24.6348 29.9697 24.8467 29.6994 24.9733 29.387C25.0999 29.0754 25.1364 28.7346 25.0791 28.4032L25.0788 28.4013L24.0336 22.2841L24.0325 22.2785C24.031 22.27 24.0317 22.2613 24.0344 22.2532C24.037 22.2451 24.0418 22.2378 24.048 22.2319L24.0581 22.2224L28.4446 17.9901C28.693 17.7531 28.8679 17.4494 28.9479 17.1154C29.0281 16.7801 29.0096 16.4287 28.8943 16.1037C28.7791 15.7788 28.572 15.4943 28.2982 15.2846C28.0337 15.0819 27.7179 14.9577 27.3867 14.9255L21.3942 14.0377C21.3838 14.0361 21.3734 14.0348 21.363 14.0336L21.3547 14.0304L21.3492 14.0236C21.3443 14.0125 21.3392 14.0016 21.3338 13.9908L18.6123 8.49638C18.469 8.19287 18.2429 7.93587 17.9599 7.75507C17.6733 7.57193 17.3402 7.47461 17 7.47461Z" fill="#400557"/>
</g>
<g clip-path="url(#clip3_30_69)">
<path fill-rule="evenodd" clip-rule="evenodd" d="M97.45 7.47461C97.1226 7.47461 96.8021 7.57193 96.5262 7.75507C96.2538 7.93588 96.0362 8.19288 95.8983 8.4964L93.2788 13.9908C93.2736 14.0016 93.2687 14.0125 93.264 14.0236L93.2586 14.0304L93.2507 14.0336C93.2407 14.0348 93.2306 14.0361 93.2206 14.0377L87.4529 14.9255C87.1342 14.9577 86.8302 15.0819 86.5755 15.2846C86.3121 15.4943 86.1128 15.7788 86.0018 16.1037C85.8908 16.4287 85.8729 16.7801 85.9503 17.1154C86.0273 17.4494 86.1955 17.7531 86.4347 17.9901L90.6567 22.2224L90.6663 22.2319C90.6724 22.2378 90.6769 22.2451 90.6795 22.2532C90.6821 22.2613 90.6827 22.27 90.6813 22.2785L89.6743 28.4013C89.619 28.7329 89.654 29.0754 89.7758 29.387C89.8977 29.6994 90.1016 29.9697 90.3642 30.1675C90.6267 30.3652 90.9375 30.4825 91.261 30.5058C91.5839 30.5291 91.9066 30.4579 92.1926 30.3006L92.1943 30.2995L97.3909 27.4461C97.4096 27.4377 97.4297 27.4333 97.4501 27.4333C97.4705 27.4333 97.4906 27.4377 97.5092 27.4461L102.706 30.2995C102.992 30.4574 103.316 30.5293 103.639 30.5058C103.963 30.4825 104.273 30.3652 104.536 30.1675C104.798 29.9697 105.002 29.6994 105.124 29.387C105.246 29.0754 105.281 28.7346 105.226 28.4032L105.226 28.4013L104.22 22.2841L104.219 22.2785C104.217 22.27 104.218 22.2613 104.221 22.2532C104.223 22.2451 104.228 22.2378 104.234 22.2319L104.243 22.2224L108.465 17.9901C108.705 17.7531 108.873 17.4494 108.95 17.1154C109.027 16.7801 109.009 16.4287 108.898 16.1037C108.787 15.7788 108.588 15.4943 108.325 15.2846C108.07 15.0819 107.766 14.9577 107.447 14.9255L101.679 14.0377C101.669 14.0361 101.659 14.0348 101.649 14.0336L101.641 14.0304L101.636 14.0236C101.631 14.0125 101.626 14.0016 101.621 13.9908L99.0018 8.49638C98.8639 8.19287 98.6463 7.93587 98.3739 7.75507C98.098 7.57193 97.7775 7.47461 97.45 7.47461Z" fill="#7D09AA"/>
</g>
<g clip-path="url(#clip4_30_69)">
<path fill-rule="evenodd" clip-rule="evenodd" d="M76 7.47461C75.6882 7.47461 75.3828 7.57193 75.1201 7.75507C74.8607 7.93588 74.6534 8.19288 74.5221 8.4964L72.0273 13.9908C72.0224 14.0016 72.0177 14.0125 72.0133 14.0236L72.0082 14.0304L72.0006 14.0336C71.9911 14.0348 71.9815 14.0361 71.972 14.0377L66.4789 14.9255C66.1753 14.9577 65.8858 15.0819 65.6433 15.2846C65.3924 15.4943 65.2026 15.7788 65.0969 16.1037C64.9912 16.4287 64.9741 16.7801 65.0478 17.1154C65.1212 17.4494 65.2814 17.7531 65.5092 17.9901L69.5301 22.2224L69.5393 22.2319C69.545 22.2378 69.5494 22.2451 69.5518 22.2532C69.5543 22.2613 69.5549 22.27 69.5535 22.2785L68.5945 28.4013C68.5418 28.7329 68.5752 29.0754 68.6912 29.387C68.8073 29.6994 69.0015 29.9697 69.2515 30.1675C69.5016 30.3652 69.7975 30.4825 70.1057 30.5058C70.4132 30.5291 70.7205 30.4579 70.9928 30.3006L70.9945 30.2995L75.9437 27.4461C75.9614 27.4377 75.9806 27.4333 76 27.4333C76.0194 27.4333 76.0386 27.4377 76.0563 27.4461L81.0055 30.2995C81.2779 30.4574 81.5866 30.5293 81.8943 30.5058C82.2024 30.4825 82.4983 30.3652 82.7485 30.1675C82.9985 29.9697 83.1927 29.6994 83.3089 29.387C83.4248 29.0754 83.4583 28.7346 83.4058 28.4032L83.4055 28.4013L82.4474 22.2841L82.4465 22.2785C82.445 22.27 82.4457 22.2613 82.4482 22.2532C82.4505 22.2451 82.4549 22.2378 82.4606 22.2319L82.4699 22.2224L86.4908 17.9901C86.7185 17.7531 86.8788 17.4494 86.9522 17.1154C87.0257 16.7801 87.0088 16.4287 86.903 16.1037C86.7974 15.7788 86.6076 15.4943 86.3566 15.2846C86.1142 15.0819 85.8247 14.9577 85.5211 14.9255L80.028 14.0377C80.0185 14.0361 80.0089 14.0348 79.9993 14.0336L79.9918 14.0304L79.9867 14.0236C79.9822 14.0125 79.9775 14.0016 79.9726 13.9908L77.4779 8.49638C77.3465 8.19287 77.1393 7.93587 76.8799 7.75507C76.6171 7.57193 76.3118 7.47461 76 7.47461Z" fill="#69088E"/>
</g>
<defs>
<clipPath id="clip0_30_69">
<rect width="22" height="24" fill="white" transform="translate(45 7)"/>
</clipPath>
<clipPath id="clip1_30_69">
<rect width="24" height="24" fill="white" transform="translate(25 7)"/>
</clipPath>
<clipPath id="clip2_30_69">
<rect width="24" height="24" fill="white" transform="translate(5 7)"/>
</clipPath>
<clipPath id="clip3_30_69">
<rect width="23.1" height="24" fill="white" transform="translate(85.9 7)"/>
</clipPath>
<clipPath id="clip4_30_69">
<rect width="22" height="24" fill="white" transform="translate(65 7)"/>
</clipPath>
</defs>
</svg>
