<svg width="25" height="25" viewBox="0 0 25 25" fill="none" xmlns="http://www.w3.org/2000/svg">
<path d="M21.875 12.5C21.875 17.6777 17.6777 21.875 12.5 21.875C7.32233 21.875 3.125 17.6777 3.125 12.5C3.125 7.32233 7.32233 3.125 12.5 3.125C17.6777 3.125 21.875 7.32233 21.875 12.5Z" fill="url(#paint0_linear_22_10)" fill-opacity="0.15"/>
<path d="M12.5 7.30208V7.29167M12.5 17.7083L12.5 10.4167M21.875 12.5C21.875 17.6777 17.6777 21.875 12.5 21.875C7.32233 21.875 3.125 17.6777 3.125 12.5C3.125 7.32233 7.32233 3.125 12.5 3.125C17.6777 3.125 21.875 7.32233 21.875 12.5Z" stroke="url(#paint1_linear_22_10)" stroke-width="2" stroke-linecap="round" stroke-linejoin="round"/>
<defs>
<linearGradient id="paint0_linear_22_10" x1="12.5" y1="3.125" x2="12.5" y2="21.875" gradientUnits="userSpaceOnUse">
<stop stop-color="#400557"/>
<stop offset="1" stop-color="#A164B9"/>
</linearGradient>
<linearGradient id="paint1_linear_22_10" x1="12.5" y1="3.125" x2="12.5" y2="21.875" gradientUnits="userSpaceOnUse">
<stop stop-color="#400557"/>
<stop offset="1" stop-color="#A164B9"/>
</linearGradient>
</defs>
</svg>
