<svg width="18" height="18" viewBox="0 0 18 18" fill="none" xmlns="http://www.w3.org/2000/svg">
<path fill-rule="evenodd" clip-rule="evenodd" d="M0 3.53572C0 2.47059 0.863451 1.60715 1.92857 1.60715H16.0714C17.1365 1.60715 18 2.47059 18 3.53572V3.97537L9.49294 9.64775C9.37296 9.72489 9.1988 9.77996 8.99999 9.77996C8.80119 9.77996 8.62703 9.72489 8.50704 9.64775L0 3.97538V3.53572ZM0 5.90703V14.4643C0 15.5294 0.863451 16.3929 1.92857 16.3929H16.0714C17.1365 16.3929 18 15.5294 18 14.4643V5.90701L10.3727 10.9928C9.96813 11.2561 9.48231 11.3871 8.99999 11.3871C8.51768 11.3871 8.03188 11.2561 7.62733 10.9928L7.61988 10.9879L0 5.90703Z" fill="url(#paint0_linear_10_4)"/>
<defs>
<linearGradient id="paint0_linear_10_4" x1="9" y1="1.60715" x2="9" y2="16.3929" gradientUnits="userSpaceOnUse">
<stop stop-color="#400557"/>
<stop offset="1" stop-color="#A164B9"/>
</linearGradient>
</defs>
</svg>
