<svg width="50" height="50" viewBox="0 0 50 50" fill="none" xmlns="http://www.w3.org/2000/svg">
<path d="M9.6003 16.6029C10.3115 16.5281 10.3489 16.5468 10.4612 17.1831C11.6777 23.7146 21.6527 22.573 22.7195 15.7795C22.9441 14.3759 23.3371 13.8144 24.1418 13.8144C24.46 13.8144 24.591 13.9267 24.591 14.17C24.591 18.7177 31.9647 21.8244 34.9216 18.5119C35.9697 17.3515 37.1676 15.1806 37.2799 14.2636L37.3735 13.4214L38.4588 13.3091C40.349 13.0845 40.3304 12.9909 37.7478 9.02337C33.2562 2.13628 29.775 -0.689674 27.8474 0.957238C27.2672 1.46254 27.3234 1.44383 27.1924 5.59855C27.1924 5.87926 27.3797 6.12256 27.6417 6.19742C28.7833 6.47815 30.0932 5.52369 29.12 5.09324C28.7083 4.90609 28.6896 4.84995 28.8018 3.59605C28.9703 1.76198 29.1013 1.70584 30.3365 3.0346C33.1811 6.10385 35.0341 7.80691 35.8201 9.3041C36.026 9.6784 36.0073 9.73455 35.8201 9.52869C35.5956 9.32282 34.3415 9.19181 34.3415 9.37896C34.3415 9.4164 34.6035 9.88426 34.9216 10.3896C37.9722 15.3116 32.4513 21.656 28.5398 17.7258C25.6016 14.7876 28.1844 9.06081 32.4515 9.06081C33.6305 9.06081 33.8364 8.85495 33.069 8.46194C30.9355 7.35775 27.2111 9.09824 25.5642 11.9803L25.0216 12.9348L23.7116 12.9722C22.963 12.9909 22.4015 12.9348 22.4015 12.8225C22.4015 12.4482 21.4658 11.7183 20.9979 11.7183C20.399 11.7183 20.3988 11.9055 20.979 12.7476C23.4868 16.4345 18.6209 21.8993 14.6908 19.8032C9.75003 17.1644 13.4558 9.1731 18.8457 10.8762C20.399 11.3627 20.6421 11.3627 20.455 10.8762C19.1637 7.52619 12.52 9.88426 10.9854 14.2261C10.5737 15.4052 10.5361 15.4426 9.89974 15.4426C9.35701 15.4426 9.26344 15.3865 9.37573 15.1057C9.45059 14.9186 9.89974 13.1407 10.4051 11.1194C11.9771 4.75638 13.9047 0.695226 14.4101 2.75388C14.7282 4.06391 14.7656 6.64657 14.4662 6.64657C13.6802 6.64657 13.6802 7.88176 14.4849 8.06891C16.2067 8.49936 16.8056 3.63348 15.2148 2.19243C13.4369 0.582938 11.3036 2.15499 10.1432 5.99156C9.8625 6.9273 9.3383 8.5555 8.98271 9.62226C7.14865 15.1057 7.31708 16.8088 9.6003 16.6029Z" fill="black"/>
<path d="M46.8428 33.4088C45.1398 29.3102 44.466 30.5641 45.4018 32.8099C45.9258 34.0825 46.0006 34.4007 45.7573 34.3071C41.7336 32.6976 33.5926 35.2615 28.6519 39.7344L26.2938 41.8679C26.1815 39.9777 26.1254 38.8922 26.0318 38.2934C25.9569 37.7694 25.1149 37.6196 25.0214 38.1998C24.9091 38.8922 24.9278 40.1274 24.9278 42.0925L24.3474 41.4375C21.4653 38.1624 13.0438 37.2453 5.08976 39.3601C3.761 39.7157 3.761 40.0713 5.05232 35.4113C6.79282 29.0669 7.29812 25.9789 7.635 24.7437C7.78471 24.1823 13.9045 24.07 16.2064 24.5753C18.3587 25.0432 23.131 27.1954 23.8234 27.9814C24.048 28.2434 24.2351 29.3289 24.5346 32.08C24.9837 36.1973 25.0401 35.9166 25.3957 36.0663C26.032 36.3096 25.7136 32.6976 25.4703 28.1499L27.9222 26.3907C33.7238 22.2359 38.7767 22.629 39.675 22.4605L40.8729 24.2759C43.5305 28.2809 43.9233 29.7781 44.2789 28.8797C44.4099 28.5429 41.0599 21.7494 40.5359 21.2815C39.544 20.4019 31.272 20.1024 25.6201 25.6608C24.1416 27.1205 24.3102 27.0644 23.5242 26.4655C18.4524 22.5915 7.09226 21.1692 6.45595 24.332C6.06293 26.2597 3.36798 33.9889 2.39481 39.0794C2.15151 40.3894 2.1328 40.7263 2.33866 41.1381C2.58196 41.6246 2.71296 41.6621 3.49898 41.5123C3.83586 41.4562 3.892 41.5872 4.02301 42.9347C4.17272 44.357 4.54702 45.2179 4.92132 44.9933C5.18333 44.8436 5.10847 45.1805 4.80903 45.5735C4.09786 46.5092 4.8839 48.3994 5.95065 48.3246C6.41852 48.2872 6.54952 48.3807 6.71796 48.8486C6.99868 49.6159 7.35427 49.6908 8.1403 49.148C8.96375 48.5866 10.4422 47.6696 12.9126 47.0894C15.383 46.5092 23.1497 47.0894 23.917 47.445C24.3849 47.6696 24.6282 47.707 24.7217 47.5573C24.7966 47.445 25.4329 47.2953 26.1628 47.2391C28.6144 47.0333 32.5261 46.5841 34.2853 46.2847C36.9054 45.8355 41.8274 45.9852 43.4556 46.5654C45.2709 47.2017 45.8324 46.5467 44.6159 45.2179C44.1855 44.75 44.1666 44.6939 44.5034 44.7875C47.1423 45.4799 47.629 44.5629 46.0757 41.7931C45.3832 40.5579 45.383 40.614 46.3749 40.614C47.554 40.614 47.498 40.1649 46.1131 38.0688C44.8592 36.1786 44.8592 36.1599 46.3564 36.6652C48.153 37.264 48.2277 36.74 46.8428 33.4088ZM12.033 44.357C9.7685 44.5629 7.67242 45.6671 7.46656 45.7419C7.1484 45.8355 6.94253 45.6296 7.07355 45.143C7.1484 44.8436 7.24197 44.488 7.2607 44.3383C7.41041 43.3651 13.7361 42.4107 16.7305 42.916C19.6687 43.4026 20.0991 43.6084 22.6257 44.5067C18.3212 44.2073 14.4472 44.1324 12.033 44.357ZM24.4784 43.3277C15.0461 40.6515 11.3407 40.5579 6.30623 42.8224C5.63248 43.1405 5.05232 43.3651 5.03361 43.3277C4.99618 43.2715 4.8839 42.2235 4.75288 41.1568C9.30062 40.0526 12.9313 39.042 17.3855 39.6221C18.7142 39.7906 20.5109 40.4643 21.8771 41.2878C24.2164 42.7101 25.3019 43.571 24.4784 43.3277ZM29.9619 40.9135C35.146 36.4406 38.7954 35.0744 42.9688 36.0663C43.3993 36.1599 45.1023 38.2934 44.9152 38.4805C44.8777 38.5179 44.4847 38.4618 44.0356 38.3495C40.5359 37.5822 38.5523 37.8816 33.8548 39.9216C32.6196 40.4643 31.3281 41.0071 30.9912 41.1381C29.6063 41.6808 26.2376 44.1325 29.9619 40.9135ZM43.7923 42.1674C41.5278 41.7369 38.9264 41.8118 36.587 42.3545C34.8278 42.7662 29.4753 43.8704 29.3069 43.7207C29.2133 43.6458 31.871 42.2984 33.1998 41.5872C35.8948 40.1461 39.1323 39.6596 42.9688 40.1087C43.7923 40.2023 43.9046 40.2959 44.597 41.2691C45.514 42.5604 45.5515 42.5042 43.7923 42.1674Z" fill="black"/>
</svg>
