<svg width="25" height="25" viewBox="0 0 25 25" fill="none" xmlns="http://www.w3.org/2000/svg">
<path d="M0 12.5C0 19.4036 5.59644 25 12.5 25C19.4036 25 25 19.4036 25 12.5C25 5.59644 19.4036 0 12.5 0C5.59644 0 0 5.59644 0 12.5Z" fill="url(#paint0_linear_1702_4)"/>
<path d="M13.6892 11.5429L18.3426 6.25H17.2399L13.1993 10.8457L9.97217 6.25H6.25L11.1301 13.1996L6.25 18.75H7.35277L11.6197 13.8967L15.0278 18.75H18.75L13.6889 11.5429H13.6892ZM12.1788 13.2608L11.6843 12.5688L7.75011 7.0623H9.44391L12.6189 11.5062L13.1133 12.1982L17.2404 17.9746H15.5466L12.1788 13.2611V13.2608Z" fill="white"/>
<defs>
<linearGradient id="paint0_linear_1702_4" x1="12.5" y1="0" x2="12.5" y2="25" gradientUnits="userSpaceOnUse">
<stop stop-color="#400557"/>
<stop offset="1" stop-color="#A164B9"/>
</linearGradient>
</defs>
</svg>
